<svg width="116" height="60" viewBox="0 0 116 60" fill="none" xmlns="http://www.w3.org/2000/svg">
<g clip-path="url(#clip0_1442_4775)">
<path d="M25.9067 16.6056C26.303 17.1712 26.581 17.7902 26.7404 18.4675L27.1634 18.3145L26.216 12.4402C26.0275 12.581 25.8318 12.6853 25.6288 12.7557C25.4258 12.8261 25.2687 12.865 25.1551 12.8698C25.0415 12.8771 24.9159 12.8795 24.7733 12.8795H16.3029C16.2739 12.8795 16.1385 12.8795 15.892 12.8795C15.8727 12.8795 15.7954 12.8747 15.66 12.8625C15.5223 12.8504 15.4184 12.8286 15.3435 12.7946C15.155 12.6926 15.0003 12.5737 14.877 12.4377L13.8596 18.3121L14.2825 18.4141C14.3671 18.0305 14.5508 17.5669 14.8335 17.0256C15.068 16.5741 15.3048 16.2294 15.5392 15.9915C16.0105 15.54 16.4479 15.222 16.8539 15.0351C17.2575 14.8482 17.7432 14.7559 18.3087 14.7559V26.8323C18.3087 27.3154 18.2894 27.6771 18.2531 27.9125C18.2145 28.148 18.0985 28.381 17.9003 28.6044C17.5716 28.9758 17.2236 29.1627 16.8563 29.1627C16.7717 29.1627 16.7065 29.1675 16.6581 29.1797V29.8229H24.3987V29.1627C24.0966 29.1627 23.8477 29.1214 23.6495 29.0364C23.449 28.9588 23.2677 28.7913 23.1034 28.5437C22.939 28.2961 22.8303 28.0145 22.7795 27.6989C22.7264 27.3834 22.7022 27.029 22.7022 26.6333C22.7022 26.5435 22.7022 26.4318 22.7022 26.2959L22.6877 14.7632C23.3644 14.7632 23.9613 14.9137 24.4736 15.2123C24.986 15.5084 25.4645 15.9745 25.9067 16.6056Z" fill="white" fill-opacity="0.8"/>
<path d="M58.7612 29.8301V29.1698C58.5389 29.1261 58.3577 29.0533 58.2175 28.9586C58.0773 28.864 57.9686 28.7256 57.8888 28.5436C57.8091 28.3639 57.7535 28.1746 57.7221 27.978C57.6882 27.7813 57.6737 27.541 57.6737 27.2595L57.6882 15.9307L64.1722 25.0626C64.5492 25.5918 64.8029 26.0093 64.9334 26.3152C65.1316 26.7545 65.2282 27.223 65.2282 27.7182C65.2282 28.4634 64.9987 28.9247 64.5371 29.1043C64.4138 29.1504 64.293 29.1723 64.1697 29.1723V29.8325H68.4352V29.1723C68.237 29.1504 68.0557 29.0849 67.8914 28.9781C67.7271 28.8713 67.599 28.728 67.5096 28.546C67.4202 28.3664 67.3622 28.1552 67.3332 27.9124C67.3042 27.6697 67.2897 27.4585 67.2897 27.2789V16.0132C67.2897 15.6977 67.3114 15.3505 67.3525 14.9743C67.396 14.5956 67.4999 14.2776 67.6715 14.0179C67.8117 13.8043 67.9687 13.6683 68.1379 13.6125C68.2515 13.5907 68.3627 13.5664 68.4762 13.5445V12.8843H64.2108V13.5445C64.4404 13.5785 64.6313 13.6368 64.7884 13.7217C64.9455 13.8067 65.0808 13.9426 65.1944 14.1271C65.308 14.314 65.3805 14.4864 65.4095 14.6442C65.4385 14.8019 65.453 15.0325 65.453 15.3384C65.453 15.3845 65.453 15.4525 65.453 15.5423V19.3679L62.6134 15.1005C62.5192 14.9549 62.4539 14.8359 62.4152 14.7437C62.3307 14.5519 62.2872 14.3771 62.2872 14.2194C62.2872 14.1077 62.321 13.996 62.3862 13.8892C62.4515 13.7824 62.5216 13.6975 62.5917 13.6343C62.6617 13.5712 62.7439 13.5421 62.8382 13.5421V12.8818H54.7592V13.5421C55.1072 13.5979 55.3803 13.7557 55.5785 14.0155C55.6727 14.1393 55.738 14.365 55.7767 14.6927C55.8153 15.0204 55.8322 15.3627 55.8322 15.7244C55.8322 15.87 55.8322 16.0132 55.8322 16.1467V26.5142C55.8322 27.0895 55.7887 27.6041 55.7042 28.0605C55.622 28.4974 55.4891 28.7912 55.3054 28.9441C55.2667 28.9174 55.2281 28.8907 55.1894 28.8567C55.0758 28.762 54.9598 28.5945 54.8366 28.3566C54.7979 28.279 54.7472 28.1697 54.6819 28.0362L51.0086 14.8262C50.953 14.6223 50.9192 14.5106 50.9095 14.4888C50.8805 14.3771 50.866 14.2752 50.866 14.1854C50.866 14.0956 50.8853 14.0057 50.9216 13.9159C51.0062 13.7242 51.1608 13.6295 51.388 13.6295V12.8843H45.1312V13.5275C45.1965 13.5494 45.2617 13.5785 45.3222 13.6125C45.3826 13.6465 45.4454 13.7169 45.5058 13.8237C45.5662 13.9305 45.5977 14.064 45.5977 14.2218C45.5977 14.3359 45.5783 14.4597 45.5421 14.5932C45.5034 14.7291 45.4623 14.865 45.414 14.9986L41.5014 27.0361C41.3878 27.4075 41.2694 27.6988 41.1486 27.9076C41.1196 27.9561 41.0882 28.0071 41.0519 28.0556C40.9504 27.8105 40.8417 27.5265 40.7281 27.1891C40.2206 25.6792 39.8581 24.7034 39.6406 24.264C39.2346 23.4533 38.8479 22.7226 38.4757 22.0745C38.1036 21.4264 37.6686 20.7248 37.1683 19.9675C37.2432 19.9675 37.5163 19.8048 37.9876 19.4771C38.6087 19.0378 39.1137 18.5572 39.498 18.0401C40.0345 17.307 40.3027 16.523 40.3027 15.6879C40.3027 15.5981 40.2931 15.4525 40.2737 15.2486C40.1892 14.4815 39.8581 13.8965 39.2781 13.4887C38.6981 13.0833 37.8595 12.8794 36.7575 12.8794H26.8709V13.5397C27.0691 13.5397 27.2382 13.5809 27.3784 13.6659C27.5186 13.7509 27.6442 13.9062 27.753 14.132C27.8617 14.3577 27.9342 14.768 27.9729 15.3675C27.9826 15.5593 27.9874 15.8287 27.9874 16.1783L27.9584 27.257C27.9584 27.6406 27.9294 27.9513 27.8738 28.1867C27.8182 28.4246 27.695 28.6334 27.5065 28.813C27.3663 28.9489 27.2455 29.0412 27.1464 29.0921C27.0473 29.1431 26.9168 29.1674 26.7573 29.1674V29.8277H33.495V29.1674C33.2316 29.0994 33.0672 29.0485 32.9996 29.0145C32.857 28.9368 32.712 28.7839 32.5622 28.5581C32.4486 28.3882 32.3712 28.1892 32.3302 27.9561C32.2867 27.7255 32.2673 27.4294 32.2673 27.0677V22.293L33.0165 21.8706C33.2992 22.3342 33.5844 22.8027 33.872 23.2761C34.1596 23.7494 34.3964 24.1839 34.5849 24.5796C35.2253 25.9559 35.6168 26.8322 35.757 27.2036C35.9648 27.7571 36.0687 28.1843 36.0687 28.4902C36.0687 28.7159 36.0132 28.8688 35.8996 28.9465C35.6917 29.0922 35.4622 29.1844 35.2084 29.2184V29.8277H39.7542H42.3279H44.4425V29.2014C44.2637 29.1674 44.1042 29.1019 43.9616 29.0072C43.8214 28.9125 43.6933 28.762 43.5797 28.5581C43.5314 28.4683 43.5097 28.3032 43.5097 28.0678C43.5097 27.5823 43.5701 27.1381 43.6933 26.7303L44.689 23.2906C45.0104 23.2906 45.4164 23.344 45.9118 23.4508C46.4072 23.5576 46.7818 23.679 47.0356 23.8149C47.6857 24.1645 48.2753 24.6937 48.8022 25.4025C49.2927 26.0555 49.5707 26.6477 49.6359 27.1769C49.6552 27.2886 49.6649 27.4464 49.6649 27.6503C49.6649 28.2595 49.4764 28.6989 49.0994 28.9684C48.9762 29.046 48.7925 29.114 48.5484 29.1723V29.8301H54.6432H55.8637H58.7612ZM34.7033 18.8921C34.1572 19.4577 33.5264 19.885 32.8111 20.1787L32.3157 20.3656V16.1152C32.3157 15.8336 32.3519 15.5884 32.422 15.3797C32.4921 15.1709 32.6177 15.0204 32.7966 14.9306C33.1156 14.7728 33.4612 14.6927 33.8285 14.6927C34.365 14.6927 34.8072 14.8383 35.1552 15.1321C35.5588 15.4695 35.7618 15.9331 35.7618 16.5205C35.7642 17.3677 35.4114 18.1591 34.7033 18.8921ZM47.6542 21.8584C47.27 21.6206 46.9123 21.4458 46.5837 21.3341C46.255 21.2225 46.0061 21.1593 45.8369 21.1472C45.6677 21.1351 45.5276 21.1302 45.414 21.1302L46.7625 16.3725L48.343 22.3682C48.1666 22.208 47.937 22.0381 47.6542 21.8584ZM94.1872 29.8641C94.3853 29.8859 94.5642 29.9272 94.7237 29.983L95.2046 30.1529L97.0412 23.6693L96.5603 23.3804C96.4008 24.1257 96.0238 24.8976 95.4293 25.701C94.9025 26.4244 94.3515 26.9827 93.7763 27.376C93.3897 27.6357 92.9643 27.8445 92.4979 28.0022C92.0315 28.16 91.5772 28.2401 91.1349 28.2401C90.7289 28.2401 90.3712 28.1697 90.0619 28.0289C89.7526 27.8882 89.5109 27.677 89.3418 27.393C89.1726 27.1114 89.0638 26.8395 89.0179 26.5798C88.972 26.32 88.9478 26.0045 88.9478 25.6307C88.9478 25.5627 88.9478 25.4729 88.9478 25.3588C88.9478 25.2471 88.9478 25.1112 88.9478 24.9534V20.1107H90.7555C90.9633 20.1107 91.2171 20.186 91.5167 20.3389C91.8188 20.4918 92.0871 20.6909 92.3215 20.9409C92.5559 21.1885 92.7686 21.5283 92.9571 21.958C93.1069 22.3075 93.2012 22.5964 93.2398 22.8221L93.7763 22.7177L92.829 16.2681L92.4061 16.421C92.4061 16.4769 92.4061 16.5618 92.4061 16.6759C92.4061 17.1614 92.2466 17.574 91.9276 17.9115C91.7681 18.0692 91.6013 18.1809 91.4273 18.2416C91.2533 18.3047 91.0721 18.3338 90.886 18.3338H88.9019V16.489C88.9019 16.1394 88.9406 15.8336 89.0228 15.5739C89.1025 15.3141 89.2427 15.0932 89.4384 14.9136C89.7405 14.6417 90.2069 14.5082 90.8377 14.5082C91.4032 14.5082 91.9759 14.6199 92.5607 14.8456C93.1456 15.0714 93.6482 15.4039 94.0712 15.8457C94.8058 16.6249 95.2819 17.5716 95.497 18.6907L95.9634 18.2683L94.9315 12.5444C94.772 12.6197 94.6439 12.6682 94.5497 12.6901C94.5303 12.6901 94.4047 12.7119 94.1678 12.7532C93.7159 12.8406 93.3148 12.8818 92.9668 12.8818C92.8435 12.8818 92.7589 12.8818 92.713 12.8818H83.3919V13.5421C83.5997 13.5421 83.7593 13.5615 83.8728 13.6004C83.9864 13.6392 84.1 13.7363 84.2112 13.8892C84.3247 14.0422 84.3924 14.1951 84.4166 14.3456C84.4407 14.4985 84.4528 14.7218 84.4528 15.0155C84.4528 15.0495 84.4528 15.1102 84.4528 15.2025V27.223C84.4528 27.5726 84.4311 27.859 84.39 28.0775C84.3489 28.2984 84.2498 28.5144 84.1 28.7305C83.9864 28.8761 83.8897 28.9756 83.81 29.0266C83.7302 29.0776 83.549 29.131 83.2663 29.1868V29.8301H93.5637C93.7812 29.8301 93.989 29.8398 94.1872 29.8641Z" fill="white" fill-opacity="0.8"/>
<path d="M81.9587 22.2566C81.9587 21.9071 81.9805 21.6206 82.0216 21.3949C82.0651 21.1691 82.1593 20.9604 82.3116 20.7686C82.5943 20.3851 82.9278 20.1933 83.3145 20.1933V19.618H76.5478V20.2443C76.5937 20.2443 76.6711 20.2443 76.7726 20.2443C77.0457 20.2443 77.2897 20.3681 77.5072 20.6157C77.6208 20.7516 77.6982 20.8924 77.7417 21.0381C77.7852 21.1837 77.8045 21.4483 77.8045 21.8318V25.8686C77.8045 26.5337 77.6812 27.0629 77.4372 27.4562C77.1447 27.9174 76.6928 28.148 76.0814 28.148C74.7063 28.148 73.5947 27.3251 72.7488 25.6769C72.0238 24.2762 71.6613 22.7251 71.6613 21.0211C71.6613 20.8851 71.6637 20.7735 71.6686 20.6837C71.6734 20.5939 71.6807 20.4968 71.6903 20.3948C71.8208 18.7369 72.1857 17.3824 72.7778 16.3313C73.4932 15.0666 74.4671 14.4355 75.702 14.4355C76.4922 14.4355 77.3913 14.7122 78.399 15.2681C78.8026 15.4963 79.2086 15.8968 79.6146 16.4745C80.1414 17.2222 80.4846 17.8679 80.6465 18.414L80.9993 18.1931L80.4217 12.3698C80.2526 12.5275 80.0882 12.6853 79.9263 12.8431C79.7185 12.979 79.4502 13.047 79.1216 13.047C78.8292 13.047 78.5102 13.0033 78.1622 12.9111C77.4855 12.7411 76.8813 12.6198 76.3545 12.547C75.8277 12.4741 75.2622 12.4377 74.6604 12.4377C73.5487 12.4377 72.5289 12.6052 71.5961 12.9378C70.6632 13.2703 69.844 13.7995 69.1383 14.5204C68.6115 15.0715 68.1837 15.688 67.8502 16.3701V24.9268C68.0822 25.473 68.3553 25.9876 68.6719 26.4731C69.5371 27.7936 70.598 28.7087 71.8498 29.216C72.8576 29.6214 74.2085 29.8253 75.9026 29.8253H82.9641V29.1821C82.7393 29.1141 82.5653 29.0388 82.4493 28.9539C82.3309 28.8689 82.2246 28.7257 82.1327 28.5218C82.0385 28.3203 81.9805 28.1213 81.9636 27.9295C81.9636 27.7159 81.9636 27.5023 81.9636 27.2862V22.2566H81.9587ZM1.08499 33.6971C1.17924 33.6752 1.30008 33.6655 1.44266 33.6655C2.49874 33.8354 3.53308 34.0053 4.54566 34.1753C5.55824 34.3452 6.46933 34.4301 7.28133 34.4301C8.29391 34.4301 10.2732 34.2044 11.3848 33.7505C12.7406 33.1994 13.7048 32.4202 14.5289 31.4153C15.5294 30.1846 16.0611 28.7063 16.0611 26.978C16.0611 25.6672 15.7687 24.3661 15.0461 23.2616C14.7392 22.7907 14.3332 22.3998 13.874 22.077C13.0402 21.492 12.0832 21.123 11.1262 20.7856C10.0339 20.3997 8.94883 19.9967 7.86133 19.5889C7.09766 19.3025 6.31224 19.152 5.71774 18.5403C4.84533 17.6421 5.08458 16.1784 5.88208 15.3166C6.25424 14.9161 6.90191 14.6054 7.42391 14.4816C9.31858 14.0325 10.6671 14.9185 12.4119 16.6153C12.8227 17.0158 13.2577 17.9164 13.2577 17.9164L14.2268 12.4499C14.1157 12.5203 13.6517 12.8261 13.4511 12.9815C13.0789 13.2703 12.453 12.8965 12.0808 12.7606C11.5806 12.5785 11.0707 12.4232 10.5535 12.2969C9.51433 12.0469 8.44616 11.9255 7.37558 11.9255C6.53699 11.9255 5.62108 11.9862 4.80424 12.178C4.20491 12.3188 3.56449 12.6222 3.03524 12.9305C1.31458 13.9282 0.490492 15.6977 0.120742 17.5863C-0.106425 18.7417 -0.0411747 19.9384 0.430075 21.0259C1.10191 22.5722 2.29333 23.8879 3.85691 24.536L9.18808 26.3201C9.57233 26.4488 10.0194 26.8275 10.2538 27.1527C11.0997 28.3276 10.6912 30.2817 9.64724 31.1968C8.01358 32.6338 5.07249 32.1047 3.46058 30.8861C2.57608 30.2186 2.10966 29.2136 1.73266 28.199C1.71091 28.1407 1.30974 27.0265 1.33149 27.0265C1.32666 27.0265 0.538825 27.0265 0.538825 27.0265L-9.13488e-05 34.4301C0.123159 34.3161 0.623409 33.9956 0.751492 33.8888C0.879575 33.782 0.990742 33.7189 1.08499 33.6971ZM111.048 24.4486C110.572 23.6184 110.016 22.7178 109.378 21.7493C109.475 21.7493 109.823 21.5405 110.425 21.1206C111.22 20.5574 111.863 19.9433 112.356 19.2782C113.042 18.3388 113.385 17.3338 113.385 16.2633C113.385 16.1492 113.373 15.9599 113.349 15.7002C113.24 14.7171 112.817 13.9646 112.075 13.4451C111.336 12.9256 110.26 12.6635 108.851 12.6635H96.2122V13.5106C96.466 13.5106 96.6811 13.564 96.8623 13.6733C97.0436 13.7825 97.2031 13.9816 97.3408 14.2704C97.4786 14.5593 97.5728 15.086 97.6212 15.8531C97.6332 16.0983 97.6405 16.4454 97.6405 16.8945L97.6042 31.0973C97.6042 31.5876 97.568 31.9857 97.4955 32.2892C97.423 32.5926 97.2659 32.8596 97.0267 33.0926C96.8454 33.2674 96.6932 33.3863 96.5675 33.4495C96.4418 33.515 96.2751 33.5466 96.0721 33.5466V34.3937H104.685V33.5441C104.349 33.4567 104.136 33.3912 104.054 33.3499C103.873 33.248 103.687 33.0538 103.494 32.7649C103.349 32.5465 103.25 32.2916 103.196 31.993C103.143 31.6969 103.114 31.3158 103.114 30.8545V24.7326L104.071 24.1913C104.431 24.7836 104.796 25.3856 105.164 25.9924C105.531 26.5993 105.835 27.1576 106.075 27.6625C106.894 29.4272 107.392 30.5487 107.573 31.0269C107.836 31.7357 107.969 32.2867 107.969 32.6775C107.969 32.9664 107.897 33.163 107.752 33.265C107.486 33.4543 107.191 33.5684 106.867 33.6121V34.3937H115.966V33.6558C115.628 33.583 115.345 33.4907 115.118 33.3742C114.806 33.2164 114.407 32.4275 113.926 31.0099C113.276 29.0728 112.812 27.8227 112.537 27.2595C112.02 26.2158 111.522 25.2812 111.048 24.4486ZM106.217 20.3705C105.519 21.0939 104.712 21.6449 103.798 22.0212L103.167 22.2591V16.8119C103.167 16.4502 103.213 16.1347 103.303 15.8677C103.392 15.6006 103.552 15.4089 103.781 15.2924C104.19 15.0909 104.629 14.9889 105.098 14.9889C105.785 14.9889 106.35 15.1783 106.795 15.5521C107.312 15.9866 107.571 16.5789 107.571 17.3314C107.571 18.4165 107.121 19.4287 106.217 20.3705ZM30.5852 32.9106C30.3967 33.0514 30.201 33.1582 30.0004 33.2286C29.7974 33.299 29.6403 33.3378 29.5267 33.3451C29.4132 33.3524 29.2875 33.3548 29.1449 33.3548H20.6697C20.6407 33.3548 20.5053 33.3548 20.2612 33.3548C20.2419 33.3548 20.1646 33.3499 20.0292 33.3378C19.8915 33.3257 19.7876 33.3038 19.7102 33.2698C19.5217 33.1679 19.3671 33.0489 19.2438 32.9106L18.2264 38.8335L18.6493 38.9354C18.7339 38.5495 18.9176 38.081 19.2003 37.5348C19.4347 37.0785 19.6716 36.7313 19.906 36.4934C20.3772 36.0395 20.8147 35.7167 21.2207 35.5298C21.6242 35.3428 22.11 35.2482 22.6755 35.2482V47.4217C22.6755 47.9096 22.6562 48.2737 22.6199 48.5116C22.5812 48.7495 22.4652 48.9825 22.2671 49.2107C21.9384 49.5845 21.588 49.7714 21.2207 49.7714C21.1361 49.7714 21.0708 49.7763 21.0225 49.7884V50.4365H28.7631V49.7714C28.461 49.7714 28.2121 49.7302 28.0139 49.6428C27.8157 49.5578 27.6345 49.3903 27.4702 49.1403C27.3058 48.8903 27.1971 48.6063 27.1463 48.2883C27.0956 47.9703 27.069 47.611 27.069 47.2154C27.069 47.1255 27.069 47.0115 27.069 46.8755L27.0545 35.2482C27.7336 35.2482 28.3281 35.3987 28.8404 35.6997C29.3527 36.0007 29.8312 36.4716 30.2735 37.1076C30.6698 37.6756 30.9477 38.3019 31.1072 38.984L31.5302 38.8286L30.5852 32.9106Z" fill="white" fill-opacity="0.8"/>
<path d="M39.945 34.7309C40.1142 34.7649 40.2423 34.7916 40.3293 34.8134C40.5661 34.8911 40.7256 34.9955 40.8126 35.1266C40.9359 35.3256 41.0229 35.5392 41.076 35.7723C41.1268 36.0029 41.1534 36.4179 41.1534 37.0127V38.5347H36.9121V36.9641C36.9121 36.2043 37.0595 35.5975 37.352 35.1436C37.4559 34.9882 37.5985 34.8814 37.7773 34.8207C37.9561 34.76 38.1035 34.7285 38.2171 34.7285V34.0828H31.3804V34.7285C31.5979 34.7624 31.7767 34.8134 31.9193 34.8862C32.0619 34.9591 32.19 35.0853 32.3011 35.2674C32.4147 35.4494 32.4848 35.629 32.5138 35.8038C32.5428 35.981 32.5573 36.2505 32.5573 36.6146C32.5573 36.6583 32.5573 36.7359 32.5573 36.8452L32.5863 47.6642C32.5863 48.0283 32.538 48.4118 32.4437 48.8124C32.3495 49.2153 32.2552 49.4653 32.161 49.5649C31.9821 49.7421 31.8565 49.8489 31.784 49.8877C31.7139 49.9265 31.5834 49.9678 31.3949 50.0115V50.6402H38.176V49.9945C37.787 49.9945 37.4655 49.8246 37.2118 49.4823C37.0789 49.2954 36.9967 49.1134 36.9629 48.9386C36.929 48.7614 36.9121 48.5211 36.9121 48.2128V40.2193H41.1244V48.2443C41.1244 48.5089 41.1026 48.742 41.0615 48.9459C41.018 49.1498 40.9407 49.3342 40.8271 49.4993C40.5903 49.8294 40.2737 49.9945 39.8774 49.9945V50.6402H46.7576V49.9945C46.3975 49.9945 46.1148 49.8731 45.907 49.6304C45.803 49.4993 45.7257 49.2978 45.6725 49.0284C45.6194 48.759 45.5952 48.4628 45.5952 48.1448L45.5662 36.9083C45.5662 36.5442 45.588 36.231 45.629 35.9664C45.6725 35.7019 45.7595 35.4591 45.8925 35.2382C46.0254 35.0173 46.1945 34.8741 46.4024 34.8086C46.5256 34.7867 46.6537 34.7576 46.7866 34.726V34.0828H39.9499V34.7309H39.945ZM47.5382 34.7309C47.804 34.7746 48.007 34.828 48.1472 34.8887C48.2898 34.9494 48.3985 35.0416 48.4735 35.1605C48.616 35.3814 48.7055 35.629 48.7441 35.9033C48.7828 36.1801 48.7997 36.5539 48.7997 37.0272V48.1982C48.7997 48.4725 48.778 48.7104 48.7369 48.9095C48.6934 49.1085 48.6112 49.2881 48.488 49.4556C48.2318 49.8197 47.9152 50.0018 47.5382 50.0018V50.6475H54.4185V50.0018C54.2396 50.0018 54.0777 49.9605 53.9351 49.878C53.7925 49.7955 53.6693 49.6935 53.5654 49.5721C53.4615 49.4508 53.3841 49.2541 53.331 48.9847C53.2778 48.7153 53.2536 48.4191 53.2536 48.1011V36.9787C53.2536 36.5709 53.2705 36.2383 53.3044 35.9786C53.3382 35.7189 53.4204 35.4858 53.5533 35.2771C53.6475 35.1217 53.7466 35.01 53.8505 34.9372C53.9545 34.8644 54.1526 34.7964 54.4475 34.7309V34.0876H47.5382V34.7309ZM67.959 49.3901C67.8696 49.2129 67.8092 49.0065 67.7826 48.7711C67.7536 48.5332 67.7391 48.3269 67.7391 48.1521V37.1462C67.7391 36.8379 67.7609 36.4981 67.802 36.1291C67.8455 35.7601 67.9518 35.4494 68.121 35.1945C68.2635 34.9858 68.4182 34.8523 68.5898 34.7989C68.7034 34.777 68.817 34.7552 68.9305 34.7333V34.0876H64.6458V34.7333C64.8754 34.7673 65.0687 34.8256 65.2282 34.9081C65.3853 34.9906 65.523 35.1241 65.6366 35.3062C65.7502 35.4882 65.8227 35.6557 65.8517 35.8111C65.8807 35.9664 65.8952 36.1922 65.8952 36.4883C65.8952 36.532 65.8952 36.5976 65.8952 36.6874V40.4256L63.0435 36.2577C62.9493 36.1145 62.8816 35.998 62.8454 35.9106C62.7608 35.7237 62.7173 35.5514 62.7173 35.3984C62.7173 35.2892 62.7511 35.18 62.8164 35.0756C62.8816 34.9712 62.9517 34.8887 63.0218 34.828C63.0919 34.7673 63.1765 34.7357 63.2707 34.7357V34.0901H55.1555V34.7357C55.506 34.7916 55.779 34.9445 55.9796 35.1994C56.0739 35.3208 56.1391 35.5416 56.1778 35.8596C56.2165 36.1801 56.2334 36.515 56.2334 36.867C56.2334 37.0102 56.2334 37.1486 56.2334 37.2797V47.4093C56.2334 47.97 56.1899 48.4749 56.1053 48.9216C56.0207 49.3682 55.8781 49.6619 55.68 49.8052C55.5664 49.8828 55.477 49.929 55.4093 49.946C55.344 49.9629 55.2208 49.9824 55.0395 50.0042V50.6475H59.1672V50.0018C58.9425 49.9581 58.7612 49.8877 58.621 49.7955C58.4809 49.7008 58.3721 49.5673 58.2924 49.3901C58.2126 49.2129 58.157 49.0284 58.1232 48.8366C58.0894 48.6449 58.0749 48.4094 58.0749 48.1351L58.0894 37.0661L64.6023 45.9868C64.9793 46.5039 65.2355 46.9117 65.366 47.2103C65.5641 47.6399 65.6632 48.0963 65.6632 48.5817C65.6632 49.31 65.4312 49.7615 64.9672 49.9363C64.844 49.9799 64.7207 50.0018 64.5975 50.0018V50.6451H68.8822V50.0018C68.684 49.9799 68.5028 49.9168 68.336 49.8124C68.1765 49.7056 68.0485 49.5649 67.959 49.3901ZM94.0566 40.8189L90.6515 39.5445C90.057 39.3236 89.6148 39.0371 89.332 38.6852C89.1049 38.3987 88.9913 38.0735 88.9913 37.7093C88.9913 37.4666 89.0251 37.236 89.0904 37.0151C89.129 36.8816 89.1895 36.7287 89.274 36.5515C89.407 36.265 89.61 36.0514 89.883 35.9155C90.1561 35.7771 90.48 35.7091 90.8473 35.7091C91.2726 35.7091 91.7173 35.7965 92.1813 35.9737C92.6453 36.1509 93.0561 36.3815 93.4162 36.668C93.8609 37.0199 94.2717 37.6098 94.6511 38.4376C94.8106 38.7798 94.9073 39.0323 94.9339 39.1973L95.4438 39.0153L94.9605 33.6386C94.8662 33.6944 94.7333 33.7818 94.5641 33.9031C94.337 34.0366 94.1195 34.1337 93.9116 34.2017C93.8826 34.2114 93.8319 34.2187 93.7545 34.2187C93.1117 34.0755 92.4882 33.9323 91.8816 33.7891C91.275 33.6458 90.7265 33.5754 90.2359 33.5754C89.8589 33.5754 89.4988 33.6143 89.158 33.692C87.7588 34.0221 86.6278 34.6338 85.7675 35.5271C84.8032 36.532 84.3199 37.7555 84.3199 39.1998C84.3199 40.2484 84.593 41.1417 85.1415 41.8796C85.6418 42.552 86.3426 43.0594 87.2416 43.4016L90.9875 44.8411C91.3282 44.9722 91.5989 45.1906 91.8043 45.4941C92.0073 45.7975 92.1088 46.1519 92.1088 46.5621C92.1088 46.7393 92.0991 46.8753 92.0798 46.9748C91.9662 47.6375 91.6545 48.1497 91.1445 48.5138C90.6346 48.8779 90.0184 49.0599 89.3006 49.0599C88.6481 49.0599 87.9787 48.8949 87.2924 48.5648C86.606 48.2346 86.014 47.7589 85.5113 47.1423C85.1609 46.7126 84.854 46.1276 84.5881 45.3897C84.3803 44.8168 84.2619 44.3653 84.2329 44.0328L83.723 44.0983L84.2764 50.9461C84.3803 50.8587 84.4866 50.7713 84.5954 50.6887C84.7041 50.6062 84.7984 50.5577 84.8805 50.5407C84.9603 50.5237 85.0618 50.5164 85.185 50.5164C86.084 50.6475 86.9637 50.781 87.824 50.9121C88.6844 51.0432 89.4601 51.1111 90.1513 51.1111C91.0116 51.1111 91.9155 50.9339 92.8604 50.5819C94.0131 50.1523 94.9411 49.5454 95.6395 48.7614C96.4902 47.8025 96.9155 46.6495 96.9155 45.3047C96.9155 44.1808 96.6618 43.2366 96.1567 42.4768C95.6589 41.7121 94.9556 41.1611 94.0566 40.8189Z" fill="white" fill-opacity="0.8"/>
<path d="M82.7636 49.3441C82.6693 49.1402 82.6113 48.9435 82.5944 48.7518C82.5944 48.5382 82.5944 48.3245 82.5944 48.1085V43.0716C82.5944 42.7221 82.6162 42.4356 82.6572 42.2099C82.7008 41.9841 82.795 41.7754 82.9473 41.5836C83.23 41.2001 83.5635 41.0083 83.9502 41.0083V40.433H77.1835V41.0593C77.2294 41.0593 77.3067 41.0593 77.4082 41.0593C77.6813 41.0593 77.9254 41.1831 78.1429 41.4307C78.2565 41.5666 78.3338 41.7074 78.3773 41.853C78.4208 41.9987 78.4402 42.2633 78.4402 42.6468V46.6836C78.4402 47.3487 78.3169 47.8779 78.0728 48.2711C77.7804 48.7323 77.3285 48.963 76.7171 48.963C75.342 48.963 74.2303 48.1401 73.3845 46.4918C72.6595 45.0912 72.297 43.5401 72.297 41.836C72.297 41.7001 72.2994 41.5885 72.3043 41.4986C72.3091 41.4088 72.3163 41.3117 72.326 41.2098C72.4565 39.5494 72.8214 38.1949 73.4135 37.1463C74.1288 35.8816 75.1028 35.2505 76.3377 35.2505C77.1279 35.2505 78.0269 35.5272 79.0347 36.0831C79.4382 36.3088 79.8443 36.7118 80.2503 37.2895C80.7771 38.0371 81.1202 38.6828 81.2822 39.2266L81.635 39.0057L81.0574 33.1823C80.8883 33.3401 80.7239 33.4979 80.562 33.6556C80.3542 33.7916 80.0859 33.8596 79.7572 33.8596C79.4648 33.8596 79.1458 33.8134 78.7978 33.7236C78.1212 33.5537 77.517 33.4323 76.9902 33.3595C76.4633 33.2867 75.8978 33.2503 75.2961 33.2503C74.1844 33.2503 73.1646 33.4178 72.2318 33.7503C71.2989 34.0829 70.4797 34.6121 69.774 35.333C69.2472 35.884 68.8194 36.5006 68.4859 37.1827V45.7393C68.7179 46.2855 68.991 46.8001 69.3076 47.2856C70.1728 48.6061 71.2337 49.5213 72.4855 50.0286C73.4932 50.434 74.8442 50.6379 76.5383 50.6379H83.5997V49.9946C83.375 49.9266 83.201 49.8514 83.085 49.7664C82.9618 49.6912 82.8554 49.548 82.7636 49.3441ZM0 37.4788H16.9167V39.0251H0V37.4788ZM96.6667 37.4788H116V39.0251H96.6667V37.4788ZM0 8.89111H113.535V10.2917H0V8.89111Z" fill="white" fill-opacity="0.8"/>
</g>
<defs>
<clipPath id="clip0_1442_4775">
<rect width="116" height="60" fill="white"/>
</clipPath>
</defs>
</svg>
