<svg width="369" height="44" viewBox="0 0 369 44" fill="none" xmlns="http://www.w3.org/2000/svg">
<g style="mix-blend-mode:color-dodge">
<g clip-path="url(#clip0_1442_4648)">
<path d="M19.7662 16.4909C20.0718 16.9602 20.2312 17.5231 20.2124 18.1134C20.2124 18.9201 20.0249 19.5434 19.6312 20.0017C18.763 21.0137 17.2218 21.3034 15.9374 21.3034H14.9437C14.7187 21.3034 14.4749 21.2851 14.2124 21.2667V15.1067C14.3437 15.0884 14.6062 15.0701 14.9812 15.0884C15.3374 15.0701 15.7687 15.0701 16.2562 15.0701C17.548 15.0701 19.0237 15.3506 19.7662 16.4909Z" fill="#D3D3D3"/>
<path d="M37.0313 0.550049H7.96875C3.5625 0.550049 0 4.03338 0 8.34172V35.6584C0 39.9667 3.5625 43.4501 7.96875 43.4501H37.0313C41.4375 43.4501 45 39.9667 45 35.6584V8.34172C45 4.03338 41.4375 0.550049 37.0313 0.550049ZM23.175 21.9084C22.425 22.935 21.375 23.705 20.1563 24.145C18.8813 24.6034 17.475 24.7684 15.9375 24.7684C15.4875 24.7684 15.1875 24.7684 15 24.75C14.8125 24.7317 14.55 24.7317 14.1938 24.7317V30.6167C14.2125 30.7451 14.1188 30.8551 13.9875 30.8734H10.35C10.2 30.8734 10.125 30.8 10.125 30.635V11.77C10.125 11.6417 10.1813 11.5684 10.3125 11.5684C10.6313 11.5684 10.9313 11.5684 11.3625 11.55C11.8125 11.5317 12.2813 11.5317 12.7875 11.5134C13.2938 11.495 13.8375 11.495 14.4188 11.4767C15 11.4584 15.5625 11.4584 16.125 11.4584C17.6625 11.4584 18.9375 11.6417 19.9875 12.0267C20.925 12.3384 21.7875 12.8517 22.5 13.53C23.1 14.1167 23.5688 14.8317 23.8687 15.62C24.15 16.39 24.3 17.1784 24.3 18.0034C24.3 19.58 23.925 20.8817 23.175 21.9084ZM36.4688 29.04C35.9438 29.7734 35.2125 30.3417 34.3688 30.6717C33.45 31.0567 32.325 31.2584 30.975 31.2584C30.1125 31.2584 29.2688 31.185 28.425 31.0201C27.7688 30.91 27.1125 30.7084 26.5125 30.4334C26.3813 30.36 26.2875 30.2317 26.3063 30.085V26.895C26.3063 26.84 26.325 26.7667 26.3813 26.73C26.4375 26.6934 26.4938 26.7117 26.55 26.7484C27.2813 27.17 28.05 27.4634 28.875 27.6467C29.5875 27.83 30.3375 27.9217 31.0875 27.9217C31.8 27.9217 32.3063 27.83 32.6438 27.665C32.9438 27.5367 33.15 27.225 33.15 26.895C33.15 26.6384 33 26.4 32.7 26.1617C32.4 25.9234 31.7812 25.6484 30.8625 25.3C29.9062 24.97 29.025 24.53 28.2 23.98C27.6188 23.5767 27.1313 23.045 26.775 22.4217C26.475 21.835 26.325 21.1934 26.3438 20.5517C26.3438 19.7634 26.5688 19.0117 26.9813 18.3334C27.45 17.6 28.1438 17.0134 28.95 16.6467C29.8313 16.2067 30.9375 16.005 32.2687 16.005C33.0375 16.005 33.825 16.06 34.5938 16.17C35.1563 16.2434 35.7 16.39 36.2062 16.5917C36.2812 16.61 36.3563 16.6834 36.3938 16.7567C36.4125 16.83 36.4313 16.9034 36.4313 16.9767V19.965C36.4313 20.0384 36.3937 20.1117 36.3375 20.1484C36.1688 20.185 36.075 20.185 36 20.1484C35.4375 19.855 34.8375 19.6534 34.2 19.525C33.5063 19.3784 32.8125 19.2867 32.1 19.2867C31.725 19.2684 31.3313 19.3234 30.975 19.415C30.7313 19.47 30.525 19.5984 30.3938 19.7817C30.3 19.9284 30.2437 20.1117 30.2437 20.2767C30.2437 20.4417 30.3188 20.6067 30.4313 20.7534C30.6 20.955 30.825 21.12 31.0688 21.2484C31.5 21.4684 31.95 21.67 32.4 21.8534C33.4125 22.1834 34.3875 22.6417 35.2875 23.1917C35.9062 23.5767 36.4125 24.09 36.7688 24.7134C37.0688 25.3 37.2188 25.9417 37.2 26.6017C37.2188 27.4634 36.9563 28.325 36.4688 29.04Z" fill="#D3D3D3"/>
</g>
<path d="M81 4.5H74.875C73.2505 4.5 71.6926 5.14531 70.544 6.29397C69.3953 7.44263 68.75 9.00055 68.75 10.625C68.75 12.2495 69.3953 13.8074 70.544 14.956C71.6926 16.1047 73.2505 16.75 74.875 16.75M81 4.5V16.75M81 4.5L87.125 4.5C87.9293 4.5 88.7258 4.65843 89.4689 4.96624C90.2121 5.27405 90.8873 5.72521 91.456 6.29397C92.0248 6.86273 92.476 7.53794 92.7838 8.28106C93.0916 9.02418 93.25 9.82065 93.25 10.625C93.25 11.4293 93.0916 12.2258 92.7838 12.9689C92.476 13.7121 92.0248 14.3873 91.456 14.956C90.8873 15.5248 90.2121 15.976 89.4689 16.2838C88.7258 16.5916 87.9293 16.75 87.125 16.75M81 16.75H74.875M81 16.75H87.125M81 16.75V29M74.875 16.75C73.2505 16.75 71.6926 17.3953 70.544 18.544C69.3953 19.6926 68.75 21.2505 68.75 22.875C68.75 24.4995 69.3953 26.0574 70.544 27.206C71.6926 28.3547 73.2505 29 74.875 29M87.125 16.75C86.3207 16.75 85.5242 16.9084 84.7811 17.2162C84.0379 17.524 83.3627 17.9752 82.794 18.544C82.2252 19.1127 81.774 19.7879 81.4662 20.5311C81.1584 21.2742 81 22.0707 81 22.875C81 23.6793 81.1584 24.4758 81.4662 25.2189C81.774 25.9621 82.2252 26.6373 82.794 27.206C83.3627 27.7748 84.0379 28.226 84.7811 28.5338C85.5242 28.8416 86.3207 29 87.125 29C87.9293 29 88.7258 28.8416 89.4689 28.5338C90.2121 28.226 90.8873 27.7748 91.456 27.206C92.0248 26.6373 92.476 25.9621 92.7838 25.2189C93.0916 24.4758 93.25 23.6793 93.25 22.875C93.25 22.0707 93.0916 21.2742 92.7838 20.5311C92.476 19.7879 92.0248 19.1127 91.456 18.544C90.8873 17.9752 90.2121 17.524 89.4689 17.2162C88.7258 16.9084 87.9293 16.75 87.125 16.75ZM74.875 29C73.2505 29 71.6926 29.6453 70.544 30.794C69.3953 31.9426 68.75 33.5005 68.75 35.125C68.75 36.7495 69.3953 38.3074 70.544 39.456C71.6926 40.6047 73.2505 41.25 74.875 41.25C76.4995 41.25 78.0574 40.6047 79.206 39.456C80.3547 38.3074 81 36.7495 81 35.125V29M74.875 29H81" stroke="#D3D3D3" stroke-width="3" stroke-linecap="round" stroke-linejoin="round"/>
<path d="M122.014 38.5051L138.707 44L155.401 38.5051L158.139 0H119.276L122.014 38.5051ZM151.212 6.44531L150.844 11.6016H131.745L132.211 18.2188H150.385L149.278 33.7392L138.707 37.2714L128.137 33.7392L127.776 28.5312H132.932L133.036 29.9485L138.707 31.8308L144.38 29.9489L144.843 23.375H127.389L126.203 6.44531H151.212Z" fill="#D3D3D3"/>
<path d="M178.812 0L182.398 39.6L198.5 44L214.596 39.6027L218.188 0H178.812ZM210.521 12.9497L210.068 17.9245L208.704 32.8405L198.5 35.596L198.494 35.5987L188.299 32.8377L187.585 25.0387H192.58L192.951 29.0868L198.494 30.5498L198.5 30.5443L204.049 29.0812L204.806 22.341L187.346 22.3877L186.851 17.776L205.225 17.567L205.596 12.6307L186.358 12.683L186.035 8.096H210.965L210.521 12.9497Z" fill="#D3D3D3"/>
<path d="M271.257 0.371582C275.675 0.37174 279.257 3.9534 279.257 8.37158V35.6284C279.257 40.0465 275.675 43.6283 271.257 43.6284H244C239.582 43.6284 236 40.0466 236 35.6284V8.37158C236 3.9533 239.582 0.371582 244 0.371582H271.257ZM268.923 20.0015C265.293 20.0016 262.971 22.3222 262.971 25.3706C262.971 28.68 264.919 30.245 267.853 31.4946L268.868 31.9312C270.722 32.7419 271.827 33.2356 271.827 34.6294C271.827 35.7924 270.752 36.6343 269.067 36.6343C267.063 36.6342 265.929 35.5881 265.058 34.1655L261.755 36.0854C262.948 38.4431 265.387 40.2417 269.162 40.2417C273.023 40.2416 275.897 38.2369 275.897 34.5776C275.897 31.1831 273.948 29.6728 270.494 28.1919L269.478 27.7563C267.734 27.0011 266.979 26.5076 266.979 25.2886C266.979 24.302 267.733 23.5466 268.923 23.5464C270.09 23.5464 270.842 24.0389 271.539 25.2886L274.704 23.2554C273.365 20.9006 271.507 20.0015 268.923 20.0015ZM255.492 20.2329V34.0542C255.492 36.0859 254.65 36.6089 253.314 36.6089C251.918 36.6089 251.337 35.651 250.698 34.5181L247.39 36.521C248.348 38.5494 250.233 40.2338 253.487 40.2339C257.089 40.2339 259.558 38.3186 259.558 34.1099V20.2329H255.492Z" fill="#D3D3D3"/>
<g clip-path="url(#clip1_1442_4648)">
<path d="M315.744 21.1117V21.1234L314.774 25.3219C314.721 25.5595 314.483 25.7341 314.209 25.7341H313.036C312.994 25.7342 312.953 25.7478 312.92 25.773C312.886 25.7981 312.861 25.8333 312.849 25.8736C311.768 29.5312 310.304 32.0458 308.371 33.5551C306.727 34.8403 304.7 35.4388 301.992 35.4388C299.559 35.4388 297.918 34.6585 296.526 33.1186C294.688 31.081 293.928 27.7492 294.389 23.7334C295.218 16.1941 299.139 8.58638 306.689 8.58638C308.985 8.56568 310.789 9.27218 312.043 10.6834C313.369 12.1747 314.043 14.422 314.046 17.3623C314.043 17.4912 313.989 17.6138 313.897 17.7039C313.804 17.794 313.68 17.8445 313.551 17.8447H308.019C307.922 17.8417 307.83 17.8018 307.762 17.7332C307.693 17.6645 307.654 17.5724 307.652 17.4757C307.607 15.4426 307.002 14.4517 305.8 14.4517C303.679 14.4517 302.428 17.3227 301.765 18.9148C300.838 21.1378 300.366 23.5516 300.459 25.9564C300.503 27.076 300.684 28.651 301.75 29.3026C302.695 29.8813 304.043 29.4979 304.859 28.8571C305.675 28.2172 306.332 27.1093 306.608 26.0986C306.647 25.9582 306.65 25.8493 306.613 25.7998C306.574 25.7503 306.467 25.7386 306.385 25.7386H304.964C304.889 25.7388 304.815 25.7227 304.746 25.6913C304.678 25.6599 304.618 25.614 304.569 25.5568C304.532 25.5121 304.505 25.4595 304.491 25.403C304.478 25.3465 304.477 25.2877 304.49 25.231L305.461 21.0244C305.509 20.8084 305.705 20.6464 305.946 20.6167V20.6068H315.268C315.29 20.6068 315.312 20.6068 315.333 20.6113C315.575 20.6419 315.746 20.8669 315.741 21.1117H315.744Z" fill="#D3D3D3"/>
<path d="M331.793 16.285C331.789 16.4131 331.735 16.5347 331.643 16.6239C331.55 16.7131 331.427 16.763 331.298 16.7629H326.203C325.869 16.7629 325.59 16.4929 325.59 16.1644C325.59 14.6812 325.076 13.9594 324.024 13.9594C322.971 13.9594 322.293 14.6047 322.273 15.7306C322.25 16.9861 322.962 18.1264 324.989 20.0866C327.658 22.5832 328.727 24.7954 328.676 27.7186C328.592 32.4445 325.369 35.5 320.465 35.5C317.961 35.5 316.048 34.8313 314.776 33.5137C313.484 32.1763 312.892 30.2125 313.016 27.6772C313.02 27.5491 313.074 27.4276 313.167 27.3386C313.259 27.2495 313.383 27.1999 313.511 27.2002H318.781C318.855 27.2015 318.927 27.219 318.993 27.2515C319.059 27.2841 319.117 27.3308 319.162 27.3883C319.202 27.4357 319.231 27.4911 319.248 27.5507C319.264 27.6104 319.268 27.6728 319.258 27.7339C319.199 28.6483 319.359 29.3314 319.72 29.7094C319.951 29.9542 320.273 30.0784 320.675 30.0784C321.649 30.0784 322.219 29.3917 322.241 28.1974C322.259 27.1642 321.931 26.2579 320.146 24.4264C317.84 22.18 315.773 19.8589 315.837 16.2094C315.875 14.0935 316.718 12.1576 318.211 10.759C319.79 9.2812 321.95 8.5 324.457 8.5C326.968 8.518 328.872 9.2317 330.114 10.6231C331.291 11.9425 331.858 13.8469 331.795 16.2841L331.793 16.285Z" fill="#D3D3D3"/>
<path d="M347.587 34.6107L347.621 9.4719C347.622 9.40894 347.61 9.34643 347.587 9.28803C347.563 9.22963 347.528 9.17653 347.483 9.13184C347.439 9.08715 347.386 9.05178 347.328 9.0278C347.269 9.00382 347.207 8.99171 347.143 8.9922H339.258C338.993 8.9922 338.876 9.219 338.8 9.3702L327.383 34.4577V34.4622L327.378 34.4676C327.252 34.7763 327.492 35.1066 327.827 35.1066H333.339C333.637 35.1066 333.833 35.0166 333.931 34.8294L335.025 32.2059C335.16 31.8567 335.185 31.8243 335.568 31.8243H340.834C341.201 31.8243 341.209 31.8315 341.203 32.1888L341.084 34.6278C341.084 34.6907 341.095 34.7531 341.119 34.8114C341.143 34.8697 341.178 34.9227 341.222 34.9673C341.267 35.0119 341.32 35.0472 341.378 35.0711C341.436 35.095 341.499 35.1071 341.562 35.1066H347.13C347.199 35.1075 347.267 35.0933 347.33 35.065C347.393 35.0367 347.449 34.995 347.494 34.9428C347.532 34.8975 347.561 34.8443 347.577 34.787C347.593 34.7297 347.597 34.6695 347.587 34.6107ZM337.832 26.2173C337.781 26.2173 337.74 26.2164 337.708 26.2128C337.688 26.2113 337.67 26.2057 337.653 26.1962C337.636 26.1867 337.621 26.1736 337.61 26.1579C337.599 26.1422 337.591 26.1242 337.588 26.1052C337.584 26.0862 337.585 26.0667 337.59 26.0481C337.601 26.0112 337.616 25.9626 337.638 25.9014L341.588 16.1571C341.622 16.0608 341.666 15.9663 341.711 15.8745C341.775 15.744 341.852 15.735 341.877 15.8322C341.898 15.9132 341.424 25.8384 341.424 25.8384C341.387 26.2101 341.37 26.2254 341.002 26.256L337.836 26.2191H337.828L337.832 26.2173Z" fill="#D3D3D3"/>
<path d="M358.822 8.9922H354.635C354.414 8.9922 354.166 9.1092 354.108 9.372L348.282 34.5981C348.269 34.6551 348.27 34.7143 348.284 34.7711C348.297 34.828 348.324 34.8808 348.362 34.9257C348.41 34.9828 348.471 35.0286 348.539 35.06C348.607 35.0914 348.681 35.1076 348.756 35.1075H353.988C354.269 35.1075 354.462 34.9698 354.515 34.7313C354.515 34.7313 355.149 31.8801 355.15 31.8711C355.195 31.6488 355.117 31.476 354.917 31.3716C354.822 31.323 354.728 31.2744 354.635 31.2249L353.728 30.7551L352.826 30.2853L352.477 30.1044C352.449 30.0902 352.425 30.0682 352.409 30.0412C352.392 30.0141 352.384 29.983 352.385 29.9514C352.386 29.9048 352.405 29.8606 352.439 29.828C352.472 29.7954 352.517 29.777 352.563 29.7768L355.431 29.7894C356.289 29.7939 357.147 29.7336 357.991 29.5788C363.929 28.4853 367.872 23.7423 367.986 17.2884C368.083 11.7804 365 8.9895 358.826 8.9895L358.822 8.9922ZM357.397 24.0042H357.285C357.034 24.0042 356.989 23.9772 356.981 23.9682C356.977 23.9619 358.635 16.7025 358.636 16.6926C358.678 16.4829 358.677 16.3623 358.547 16.2912C358.381 16.1994 355.96 14.9268 355.96 14.9268C355.932 14.9121 355.908 14.8898 355.892 14.8625C355.876 14.8351 355.868 14.8037 355.869 14.772C355.87 14.7258 355.889 14.6818 355.923 14.6495C355.956 14.6172 356 14.5992 356.047 14.5992H359.874C361.065 14.6352 361.73 15.6981 361.698 17.5125C361.643 20.6553 360.145 23.8935 357.397 24.0051V24.0042Z" fill="#D3D3D3"/>
</g>
</g>
<defs>
<clipPath id="clip0_1442_4648">
<rect width="45" height="44" fill="white"/>
</clipPath>
<clipPath id="clip1_1442_4648">
<rect width="74" height="27" fill="white" transform="translate(294.257 8.5)"/>
</clipPath>
</defs>
</svg>
